<?xml version="1.0" encoding="UTF-8"?>
<svg version="1.1" xmlns="http://www.w3.org/2000/svg" width="32" height="32">
<path d="M0 0 C10.56 0 21.12 0 32 0 C32 10.56 32 21.12 32 32 C21.44 32 10.88 32 0 32 C0 21.44 0 10.88 0 0 Z " fill="#040404" transform="translate(0,0)"/>
<path d="M0 0 C0.9075 0.37125 1.815 0.7425 2.75 1.125 C6.21799438 2.44463934 6.21799438 2.44463934 10 0 C13.465 3.465 13.465 3.465 17 7 C16.62875 7.9075 16.2575 8.815 15.875 9.75 C14.55536066 13.21799438 14.55536066 13.21799438 17 17 C14.69 19.31 12.38 21.62 10 24 C9.0925 23.62875 8.185 23.2575 7.25 22.875 C3.78200562 21.55536066 3.78200562 21.55536066 0 24 C-2.31 21.69 -4.62 19.38 -7 17 C-6.443125 15.63875 -6.443125 15.63875 -5.875 14.25 C-4.55536066 10.78200562 -4.55536066 10.78200562 -7 7 C-4.69 4.69 -2.38 2.38 0 0 Z " fill="#D0D1D3" transform="translate(11,4)"/>
<path d="M0 0 C0.9075 0.37125 1.815 0.7425 2.75 1.125 C6.21799438 2.44463934 6.21799438 2.44463934 10 0 C12.31 2.31 14.62 4.62 17 7 C15 11 15 11 13 13 C13 12.34 13 11.68 13 11 C12.34773438 10.81824219 11.69546875 10.63648438 11.0234375 10.44921875 C6.07269989 9.02533404 1.53453577 7.50592766 -3 5 C-1.125 1.125 -1.125 1.125 0 0 Z " fill="#5B5B5D" transform="translate(11,4)"/>
<path d="M0 0 C4.95 1.98 4.95 1.98 10 4 C10 4.66 10 5.32 10 6 C10.66 6.33 11.32 6.66 12 7 C10.68 7.99 9.36 8.98 8 10 C4.18315774 8.44499019 1.80804268 5.96404505 -1 3 C-0.67 2.01 -0.34 1.02 0 0 Z " fill="#A9AAAC" transform="translate(5,18)"/>
<path d="M0 0 C8.415 3.465 8.415 3.465 17 7 C17 7.66 17 8.32 17 9 C17.99 9.33 18.98 9.66 20 10 C19.34 10.66 18.68 11.32 18 12 C16.824375 11.401875 15.64875 10.80375 14.4375 10.1875 C11.71911669 8.82348851 8.99477557 7.54469815 6.1875 6.375 C3 5 3 5 0 3 C0 2.01 0 1.02 0 0 Z " fill="#959698" transform="translate(7,8)"/>
<path d="M0 0 C0.928125 0.7425 1.85625 1.485 2.8125 2.25 C8.49024956 6.32870989 15.24076466 8.4170409 22 10 C22 10.66 22 11.32 22 12 C16.22312532 12.58315454 12.56339621 10.64333685 7.625 8 C6.88894531 7.6184375 6.15289062 7.236875 5.39453125 6.84375 C3.5906766 5.90668265 1.79452741 4.95480793 0 4 C0 2.68 0 1.36 0 0 Z " fill="#B4B5B7" transform="translate(6,9)"/>
<path d="M0 0 C5.4556837 2.12405077 10.81634671 4.27176143 16 7 C15.67 8.32 15.34 9.64 15 11 C13.68 10.34 12.36 9.68 11 9 C11 8.34 11 7.68 11 7 C10.34 7 9.68 7 9 7 C9 6.34 9 5.68 9 5 C8.2575 4.87625 7.515 4.7525 6.75 4.625 C4.19858515 4.04513299 2.2732427 3.26291261 0 2 C0 1.34 0 0.68 0 0 Z " fill="#BABBBD" transform="translate(6,17)"/>
<path d="M0 0 C2.62187494 1.04874998 3.79371361 1.64931313 5.25 4.125 C5.4975 4.74375 5.745 5.3625 6 6 C4 7 4 7 2.0546875 6.44140625 C1.33539062 6.15136719 0.61609375 5.86132812 -0.125 5.5625 C-0.84945313 5.27503906 -1.57390625 4.98757812 -2.3203125 4.69140625 C-2.87460937 4.46324219 -3.42890625 4.23507813 -4 4 C-2.68 2.68 -1.36 1.36 0 0 Z " fill="#484849" transform="translate(19,4)"/>
<path d="M0 0 C0.4846875 0.32613281 0.969375 0.65226563 1.46875 0.98828125 C6.17937005 4.05924317 10.67544916 6.19345596 16 8 C15.67 8.99 15.34 9.98 15 11 C15 10.34 15 9.68 15 9 C14.34773438 8.81824219 13.69546875 8.63648438 13.0234375 8.44921875 C8.07269989 7.02533404 3.53453577 5.50592766 -1 3 C-0.67 2.01 -0.34 1.02 0 0 Z " fill="#767678" transform="translate(9,6)"/>
<path d="M0 0 C5.53657294 -0.42589023 9.89665983 1.094753 15 3 C13.68 4.32 12.36 5.64 11 7 C10.67 6.34 10.34 5.68 10 5 C7.65961814 3.86897474 7.65961814 3.86897474 4.9375 2.875 C4.01839844 2.52179687 3.09929688 2.16859375 2.15234375 1.8046875 C1.44207031 1.53914063 0.73179688 1.27359375 0 1 C0 0.67 0 0.34 0 0 Z " fill="#D5D6D8" transform="translate(11,19)"/>
<path d="M0 0 C2.9375 0.8125 2.9375 0.8125 6 2 C6.33 2.99 6.66 3.98 7 5 C3 5 3 5 1.25 3.625 C0 2 0 2 0 0 Z " fill="#818183" transform="translate(7,22)"/>
<path d="M0 0 C0.33 0.99 0.66 1.98 1 3 C1.804375 3.12375 2.60875 3.2475 3.4375 3.375 C4.7059375 3.684375 4.7059375 3.684375 6 4 C6.33 4.66 6.66 5.32 7 6 C5.68 5.67 4.36 5.34 3 5 C2.67 5.66 2.34 6.32 2 7 C0.4375 5.1875 0.4375 5.1875 -1 3 C-0.67 2.01 -0.34 1.02 0 0 Z " fill="#C6C7C9" transform="translate(5,10)"/>
<path d="M0 0 C1.4835001 0.42257276 2.96176424 0.86356322 4.4375 1.3125 C5.67306641 1.67794922 5.67306641 1.67794922 6.93359375 2.05078125 C7.61550781 2.36402344 8.29742187 2.67726563 9 3 C9.33 3.99 9.66 4.98 10 6 C9.34 6 8.68 6 8 6 C8 5.34 8 4.68 8 4 C5.69 3.67 3.38 3.34 1 3 C0.67 2.01 0.34 1.02 0 0 Z " fill="#999A9C" transform="translate(5,20)"/>
</svg>
